<svg xmlns="http://www.w3.org/2000/svg" xmlns:svg="http://www.w3.org/2000/svg" xmlns:xlink="http://www.w3.org/1999/xlink" version="1.0" height="590pt" width="880.0000000000001pt" viewBox="764.9999999999999 737 888.0000000000001 596" ><defs><style type="text/css">
            @font-face {
                font-family: 'raleway';
                src: url('https://app.creately.com/diagram/assets/fonts/embed/raleway-regular-webfont.woff2') format('woff2'),
                    url('https://app.creately.com/diagram/assets/fonts/embed/raleway-regular-webfont.woff') format('woff');
                font-weight: normal;
                font-style: normal;
            }
            @font-face {
                font-family: 'noto_regular';
                src: url('https://app.creately.com/diagram/assets/fonts/noto/noto-regular.woff') format('woff'),
                     url('https://app.creately.com/diagram/assets/fonts/noto/noto-regular.woff2') format('woff2');
                font-weight: normal;
                font-style: normal;
            }
        p {
            margin: 0;
        }
        </style></defs><defs><style>
            span{ display: inline-block; }
        </style></defs><g id="cl1qht82QRj"><mask id="0931b" x="1248" y="1038.9906323649734" width="256" height="43.00936763502659" maskUnits="userSpaceOnUse"><rect x="1248" y="1038.9906323649734" width="256" height="43.00936763502659" fill="white" /><rect x="1301.0858408716165" y="1033.3126386938611" width="149.73" height="54.01" fill="black" /></mask><g mask="url(#0931b)"><path d="M 1490,1068 C 1375.9344544954888,1067.9564589460722 1375.9344544954888,1052.5572442375576 1262,1053" fill="none" stroke="#354860" stroke-width="2" stroke-linecap="round" stroke-linejoin="round"/><path d="M 1490,1068 L 1481.3319213938776,1062.2085165969536 L 1481.2769727865566,1073.7083853201414 Z" fill="rgb(53,72,96)" stroke="#354860" stroke-width="2" stroke-linecap="round" stroke-linejoin="round"/></g><g transform="translate(1304.0858408716165, 1036.3126386938611)" width="143.73" height="48.01"><text text-decoration="none" x="18.864999999999995" fill="#4b4b4b" font-weight="bold" font-size="10pt" font-family="raleway"  y="12">Retrive&#160;</text><text text-decoration="none" x="64.865" fill="#4b4b4b" font-weight="bold" font-size="10pt" font-family="raleway"  y="12">Purchase&#160;</text><text text-decoration="none" x="124.865" fill="#4b4b4b" font-weight="bold" font-size="10pt" font-family="raleway"  y="12"></text><text text-decoration="none" x="1.3649999999999949" fill="#4b4b4b" font-weight="bold" font-size="10pt" font-family="raleway"  y="28">detail&#160;</text><text text-decoration="none" x="38.364999999999995" fill="#4b4b4b" font-weight="bold" font-size="10pt" font-family="raleway"  y="28">&#x26;&#160;</text><text text-decoration="none" x="50.364999999999995" fill="#4b4b4b" font-weight="bold" font-size="10pt" font-family="raleway"  y="28">Product&#160;</text><text text-decoration="none" x="101.365" fill="#4b4b4b" font-weight="bold" font-size="10pt" font-family="raleway"  y="28">desire&#160;</text><text text-decoration="none" x="142.365" fill="#4b4b4b" font-weight="bold" font-size="10pt" font-family="raleway"  y="28"></text><text text-decoration="none" x="36.864999999999995" fill="#4b4b4b" font-weight="bold" font-size="10pt" font-family="raleway"  y="47">Information</text><text text-decoration="none" x="106.865" fill="#4b4b4b" font-size="10pt" font-family="noto_regular"  y="47"></text></g></g><g id="iOMt4d4bFyY"><g transform="translate(1120.0000000000002 740)"><rect x="0" y="0" width="160" height="100" fill="rgb(65,131,74)" stroke="#1F5927" stroke-width="2" stroke-linecap="round" stroke-linejoin="round"/></g><g transform="translate(1150.1400000000003, 780.395) rotate(0, 49.86, 9.605)" width="99.72" height="19.21"><text text-decoration="none" x="0" fill="#ffffff" font-weight="bold" font-size="12pt" font-family="raleway"  y="15">Administrator</text><text text-decoration="none" x="100" fill="#4b4b4b" font-size="10pt" font-family="noto_regular"  y="15"></text></g></g><g id="ceX72pQvHhx"><g transform="translate(1120 1230)"><rect x="0" y="0" width="160" height="100" fill="rgb(65,131,74)" stroke="#1F5927" stroke-width="2" stroke-linecap="round" stroke-linejoin="round"/></g><g transform="translate(1176.94, 1270.395) rotate(0, 23.06, 9.605)" width="46.12" height="19.21"><text text-decoration="none" x="0.05999999999999872" fill="#ffffff" font-weight="bold" font-size="12pt" font-family="raleway"  y="15">Visitor</text><text text-decoration="none" x="46.06" fill="#4b4b4b" font-size="10pt" font-family="noto_regular"  y="15"></text></g></g><g id="W7AlXheME7q"><g transform="translate(769.9999999999999 980)"><rect x="0" y="0" width="160" height="100" fill="rgb(65,131,74)" stroke="#1F5927" stroke-width="2" stroke-linecap="round" stroke-linejoin="round"/></g><g transform="translate(801.5449999999998, 1020.395) rotate(0, 48.455, 9.605)" width="96.91" height="19.21"><text text-decoration="none" x="28.955" fill="#ffffff" font-weight="bold" font-size="12pt" font-family="raleway"  y="15">Book&#160;</text><text text-decoration="none" x="20.955" fill="#ffffff" font-weight="bold" font-size="12pt" font-family="raleway"  y="34">Vendor</text><text text-decoration="none" x="75.955" fill="#4b4b4b" font-size="10pt" font-family="noto_regular"  y="34"></text></g></g><g id="kfrXwGuDRLu"><g transform="translate(1490 980)"><rect x="0" y="0" width="160" height="100" fill="rgb(65,131,74)" stroke="#1F5927" stroke-width="2" stroke-linecap="round" stroke-linejoin="round"/></g><g transform="translate(1552.56, 1020.395) rotate(0, 17.44, 9.605)" width="34.88" height="19.21"><text text-decoration="none" x="0" fill="#ffffff" font-weight="bold" font-size="12pt" font-family="raleway"  y="15">User</text><text text-decoration="none" x="35" fill="#4b4b4b" font-size="10pt" font-family="noto_regular"  y="15"></text></g></g><g id="qdwyIPXizfS"><g transform="translate(1140.0000000000002 960)"><ellipse cx="65" cy="65" rx="65" ry="65" fill="rgb(202,69,77)" stroke="#65171B" stroke-width="2" stroke-linecap="round" stroke-linejoin="round"/></g><g transform="translate(1172.5550000000003, 1013.8) rotate(0, 32.445, 11.2)" width="64.89" height="22.4"><text text-decoration="none" x="0" fill="#ffffff" font-weight="bold" font-size="14pt" font-family="raleway"  y="17">System</text><text text-decoration="none" x="65" fill="#4b4b4b" font-size="10pt" font-family="noto_regular"  y="17"></text></g></g><g id="gReY6mFdThZ"><mask id="cc272" x="1119" y="826" width="64.00277090194845" height="155" maskUnits="userSpaceOnUse"><rect x="1119" y="826" width="64.00277090194845" height="155" fill="white" /><rect x="1106.6965368127098" y="884.0183170227655" width="88.34" height="38.01" fill="black" /></mask><g mask="url(#cc272)"><path d="M 1169,967 C 1169.3677884629135,903.4994438080682 1133.0000000000002,903.4994438080682 1133,840" fill="none" stroke="#354860" stroke-width="2" stroke-linecap="round" stroke-linejoin="round"/><path d="M 1133,840 L 1127.557727560817,848.8914867950972 L 1139.0506881340868,848.489171916842 Z" fill="rgb(53,72,96)" stroke="#354860" stroke-width="2" stroke-linecap="round" stroke-linejoin="round"/></g><g transform="translate(1109.6965368127098, 887.0183170227655)" width="82.34" height="32.01"><text text-decoration="none" x="14.170000000000002" fill="#4b4b4b" font-weight="bold" font-size="10pt" font-family="raleway"  y="12">Website&#160;</text><text text-decoration="none" x="68.17" fill="#4b4b4b" font-weight="bold" font-size="10pt" font-family="raleway"  y="12"></text><text text-decoration="none" x="0.6700000000000017" fill="#4b4b4b" font-weight="bold" font-size="10pt" font-family="raleway"  y="31">Management</text><text text-decoration="none" x="81.67" fill="#4b4b4b" font-size="10pt" font-family="noto_regular"  y="31"></text></g></g><g id="pJfXzVpsypE"><mask id="523b6" x="1202" y="826" width="82" height="148" maskUnits="userSpaceOnUse"><rect x="1202" y="826" width="82" height="148" fill="white" /><rect x="1212.0600135" y="881.445015" width="61.07" height="38.01" fill="black" />undefined</mask><g mask="url(#523b6)"><path d="M 1270,840 C 1270.0000000000002,900 1216.0000000000002,900 1216,960" fill="none" stroke="#354860" stroke-width="2" stroke-linecap="round" stroke-linejoin="round"/><path d="M 1216,960 L 1222.2189327540898,951.6332956231389 L 1210.7362924866418,951.0016529327052 Z" fill="rgb(53,72,96)" stroke="#354860" stroke-width="2" stroke-linecap="round" stroke-linejoin="round"/></g><g transform="translate(1215.0600135, 884.445015)" width="55.07" height="32.01"><text text-decoration="none" x="0.5350000000000001" fill="#4b4b4b" font-weight="bold" font-size="10pt" font-family="raleway"  y="12">Website&#160;</text><text text-decoration="none" x="54.535" fill="#4b4b4b" font-weight="bold" font-size="10pt" font-family="raleway"  y="12"></text><text text-decoration="none" x="5.535" fill="#4b4b4b" font-weight="bold" font-size="10pt" font-family="raleway"  y="31">Activity</text><text text-decoration="none" x="49.535" fill="#4b4b4b" font-size="10pt" font-family="noto_regular"  y="31"></text></g>undefined</g><g id="qbgWYYaGm2H"><mask id="eb2b5" x="916" y="975" width="238" height="49.005756029554846" maskUnits="userSpaceOnUse"><rect x="916" y="975" width="238" height="49.005756029554846" fill="white" /><rect x="996.685" y="980.806221454812" width="76.63" height="38.01" fill="black" /></mask><g mask="url(#eb2b5)"><path d="M 930,989 C 1035,989.4260969557564 1035,1010.403826923742 1140,1010" fill="none" stroke="#354860" stroke-width="2" stroke-linecap="round" stroke-linejoin="round"/><path d="M 1140,1010 L 1131.3452232020977,1004.1886571854544 L 1131.2639072241973,1015.6883696910669 Z" fill="rgb(53,72,96)" stroke="#354860" stroke-width="2" stroke-linecap="round" stroke-linejoin="round"/></g><g transform="translate(999.685, 983.806221454812)" width="70.63" height="32.01"><text text-decoration="none" x="11.314999999999998" fill="#4b4b4b" font-weight="bold" font-size="10pt" font-family="raleway"  y="12">Product</text><text text-decoration="none" x="59.315" fill="#4b4b4b" font-weight="bold" font-size="10pt" font-family="raleway"  y="12"></text><text text-decoration="none" x="0.3149999999999977" fill="#4b4b4b" font-weight="bold" font-size="10pt" font-family="raleway"  y="31">Information</text><text text-decoration="none" x="70.315" fill="#4b4b4b" font-size="10pt" font-family="noto_regular"  y="31"></text></g></g><g id="C6aXjCUfmdj"><mask id="b228e" x="916" y="1024" width="238" height="60.002696221357155" maskUnits="userSpaceOnUse"><rect x="916" y="1024" width="238" height="60.002696221357155" fill="white" /><rect x="1015.355" y="1043.2628744282126" width="39.29" height="22.01" fill="black" /></mask><g mask="url(#b228e)"><path d="M 1140,1038 C 1035,1038.374133547723 1035,1070.3401982608439 930,1070" fill="none" stroke="#354860" stroke-width="2" stroke-linecap="round" stroke-linejoin="round"/><path d="M 930,1070 L 938.7571004105076,1075.655975524166 L 938.6331944438247,1064.1566430517387 Z" fill="rgb(53,72,96)" stroke="#354860" stroke-width="2" stroke-linecap="round" stroke-linejoin="round"/></g><g transform="translate(1018.355, 1046.2628744282126)" width="33.29" height="16.01"><text text-decoration="none" x="0.14499999999999957" fill="#4b4b4b" font-weight="bold" font-size="10pt" font-family="raleway"  y="15">Sales</text><text text-decoration="none" x="33.144999999999996" fill="#4b4b4b" font-size="10pt" font-family="noto_regular"  y="15"></text></g></g><g id="n8Sqh48nypF"><mask id="2b44f" x="1256" y="979" width="248" height="43" maskUnits="userSpaceOnUse"><rect x="1256" y="979" width="248" height="43" fill="white" /><rect x="1349.0600275" y="989.4674764876459" width="63.53" height="22.01" fill="black" /></mask><g mask="url(#2b44f)"><path d="M 1270,1008 C 1380,1007.8039378240749 1380,993.4165526563214 1490,993" fill="none" stroke="#354860" stroke-width="2" stroke-linecap="round" stroke-linejoin="round"/><path d="M 1270,1008 L 1278.722176798353,1013.7096846347193 L 1278.6689412065177,1002.2098078539984 Z" fill="rgb(53,72,96)" stroke="#354860" stroke-width="2" stroke-linecap="round" stroke-linejoin="round"/></g><g transform="translate(1352.0600275, 992.4674764876459)" width="57.53" height="16.01"><text text-decoration="none" x="0.26500000000000057" fill="#4b4b4b" font-weight="bold" font-size="10pt" font-family="raleway"  y="15">Purchase</text><text text-decoration="none" x="57.265" fill="#4b4b4b" font-size="10pt" font-family="noto_regular"  y="15"></text></g></g><g id="KzigiVy09XM"><mask id="385fb" x="1120.9990231061176" y="1064" width="58.00442777622834" height="180" maskUnits="userSpaceOnUse"><rect x="1120.9990231061176" y="1064" width="58.00442777622834" height="180" fill="white" /><rect x="1110.2562323835118" y="1143.0641865398145" width="79.62" height="22.01" fill="black" /></mask><g mask="url(#385fb)"><path d="M 1165,1078 C 1165.3766196893644,1154.0922487197527 1134.8,1154.0922487197527 1135,1230" fill="none" stroke="#354860" stroke-width="2" stroke-linecap="round" stroke-linejoin="round"/><path d="M 1165,1078 L 1159.073343626665,1086.5762235839609 L 1170.57093781284,1086.8114424820883 Z" fill="rgb(53,72,96)" stroke="#354860" stroke-width="2" stroke-linecap="round" stroke-linejoin="round"/></g><g transform="translate(1113.2562323835118, 1146.0641865398145)" width="73.62" height="16.01"><text text-decoration="none" x="0.8100000000000023" fill="#4b4b4b" font-weight="bold" font-size="10pt" font-family="raleway"  y="15">Registration</text><text text-decoration="none" x="72.81" fill="#4b4b4b" font-size="10pt" font-family="noto_regular"  y="15"></text></g></g><g id="3scydmLBYpB"><mask id="25ce4" x="1209.9989013516233" y="1076" width="65.00177294544278" height="168" maskUnits="userSpaceOnUse"><rect x="1209.9989013516233" y="1076" width="65.00177294544278" height="168" fill="white" /><rect x="1204.1659147107748" y="1140.995" width="76.63" height="38.01" fill="black" /></mask><g mask="url(#25ce4)"><path d="M 1261,1230 C 1261.183715505585,1160 1223.7653903898142,1160 1224,1090" fill="none" stroke="#354860" stroke-width="2" stroke-linecap="round" stroke-linejoin="round"/><path d="M 1261,1230 L 1266.487488579687,1221.1363474900306 L 1254.9926279812853,1221.4801204140879 Z" fill="rgb(53,72,96)" stroke="#354860" stroke-width="2" stroke-linecap="round" stroke-linejoin="round"/></g><g transform="translate(1207.1659147107748, 1143.995)" width="70.63" height="32.01"><text text-decoration="none" x="11.314999999999998" fill="#4b4b4b" font-weight="bold" font-size="10pt" font-family="raleway"  y="12">Product</text><text text-decoration="none" x="59.315" fill="#4b4b4b" font-weight="bold" font-size="10pt" font-family="raleway"  y="12"></text><text text-decoration="none" x="0.3149999999999977" fill="#4b4b4b" font-weight="bold" font-size="10pt" font-family="raleway"  y="31">Information</text><text text-decoration="none" x="70.315" fill="#4b4b4b" font-size="10pt" font-family="noto_regular"  y="31"></text></g></g><g id="PiInvWMSqA5"><g><path d="M 1120,790 L 930,789" fill="none" stroke="#354860" stroke-width="2" stroke-linecap="round" stroke-linejoin="round"/><path d="M 930,789 L 938.6507513754005,794.8173333556438 L 938.7400288928518,783.3176799032618 Z" fill="rgb(53,72,96)" stroke="#354860" stroke-width="2" stroke-linecap="round" stroke-linejoin="round"/></g></g><g id="Z8OTbkixMuY"><g><path d="M 1120,814 L 930,814" fill="none" stroke="#354860" stroke-width="2" stroke-linecap="round" stroke-linejoin="round"/><path d="M 1120,814 L 1111.3063349963402,808.2469959556925 L 1111.3023616938633,819.7469952692953 Z" fill="rgb(53,72,96)" stroke="#354860" stroke-width="2" stroke-linecap="round" stroke-linejoin="round"/></g></g><g id="xzA1RESr17T"><g transform="translate(770 770)"><path d="M 160,0 L 0,0 L 0,60 L 160,60" fill="white" stroke="#4b4b4b" stroke-width="2" stroke-linecap="round" stroke-linejoin="round"/></g><g transform="translate(815, 790.395) rotate(0, 35, 9.605)" width="70" height="19.21"><text text-decoration="none" x="0" fill="#4b4b4b" font-weight="bold" font-size="12pt" font-family="raleway"  y="15">Database</text><text text-decoration="none" x="70" fill="#4b4b4b" font-size="10pt" font-family="noto_regular"  y="15"></text></g></g></svg>